<svg id="Group_16" data-name="Group 16" xmlns="http://www.w3.org/2000/svg" width="38.229" height="38.229" viewBox="0 0 38.229 38.229">
  <path id="Path_20" data-name="Path 20" d="M219.829,355.315a19.119,19.119,0,0,1-19.115,19.115h0A19.119,19.119,0,0,1,181.6,355.315h0A19.119,19.119,0,0,1,200.715,336.2h0a19.119,19.119,0,0,1,19.115,19.115Z" transform="translate(-181.6 -336.2)" fill="#121214"/>
  <path id="Path_21" data-name="Path 21" d="M314.566,415.382l-.317,2.559a.86.86,0,0,1-.847.75h-4.137v10.688q-.649.058-1.328.058a14.643,14.643,0,0,1-2.924-.289V418.691h-3.184a.534.534,0,0,1-.529-.529v-3.2a.534.534,0,0,1,.529-.529h3.184v-4.8a5.319,5.319,0,0,1,5.31-5.329h3.713a.534.534,0,0,1,.529.529v3.2a.534.534,0,0,1-.529.529h-2.655a2.129,2.129,0,0,0-2.126,2.136v3.732h4.464a.86.86,0,0,1,.847.962Z" transform="translate(-289.785 -397.749)" fill="#fff"/>
</svg>
