<svg xmlns="http://www.w3.org/2000/svg" width="554.95" height="554.95" viewBox="0 0 554.95 554.95">
  <g id="Layer_1" data-name="Layer 1" transform="translate(0.52 0.52)" opacity="0.44">
    <path id="Path_83" data-name="Path 83" d="M.141,172.031c0,.723-.121,1.447-.121,2.291a19.654,19.654,0,0,0,19.65,19.65,16.8,16.8,0,0,0,4.219-.482l114.768-24.232L79.707,6.63A278.176,278.176,0,0,0,.141,172.031" transform="translate(0.442 73.519)" fill="none" stroke="#707070" stroke-width="1" fill-rule="evenodd"/>
    <path id="Path_84" data-name="Path 84" d="M174.322.221h-2.291A277.446,277.446,0,0,0,6.63,80.028l162.508,58.831L193.49,23.488a19.952,19.952,0,0,0,.362-3.858A19.654,19.654,0,0,0,174.2-.02" transform="translate(73.519)" fill="none" stroke="#707070" stroke-width="1" fill-rule="evenodd"/>
    <path id="Path_85" data-name="Path 85" d="M65.461,169.259,6.63,6.63,169.259,65.461l-103.8,103.8Z" transform="translate(73.519 73.519)" fill="none" stroke="#707070" stroke-width="1" fill-rule="evenodd"/>
    <path id="Path_86" data-name="Path 86" d="M171.921,172.807c.723,0,1.447.121,2.291.121a19.654,19.654,0,0,0,19.65-19.65,15.277,15.277,0,0,0-.482-4.1L169.148,34.41,6.64,93.241a277.168,277.168,0,0,0,165.281,79.566" transform="translate(73.63 380.641)" fill="none" stroke="#707070" stroke-width="1" fill-rule="evenodd"/>
    <path id="Path_87" data-name="Path 87" d="M.221,43.29V45.58a277.446,277.446,0,0,0,79.807,165.4L138.859,48.474,23.488,24.122a19.954,19.954,0,0,0-3.858-.362A19.654,19.654,0,0,0-.02,43.41" transform="translate(0 262.9)" fill="none" stroke="#707070" stroke-width="1" fill-rule="evenodd"/>
    <path id="Path_88" data-name="Path 88" d="M169.259,129.6,6.63,188.429,65.461,25.8l103.8,103.8Z" transform="translate(73.519 285.453)" fill="none" stroke="#707070" stroke-width="1" fill-rule="evenodd"/>
    <path id="Path_89" data-name="Path 89" d="M172.918,45.7c0-.723.121-1.447.121-2.291a19.654,19.654,0,0,0-19.65-19.65,16.8,16.8,0,0,0-4.219.482L34.4,48.474,93.231,210.982A276.489,276.489,0,0,0,172.8,45.7" transform="translate(380.53 262.9)" fill="none" stroke="#707070" stroke-width="1" fill-rule="evenodd"/>
    <path id="Path_90" data-name="Path 90" d="M43.29,173.169a15.371,15.371,0,0,0,2.291-.121,277.446,277.446,0,0,0,165.4-79.807L48.474,34.41,24.122,149.781a19.954,19.954,0,0,0-.362,3.858,19.654,19.654,0,0,0,19.65,19.65" transform="translate(262.9 380.641)" fill="none" stroke="#707070" stroke-width="1" fill-rule="evenodd"/>
    <path id="Path_91" data-name="Path 91" d="M129.6,25.8l58.831,162.629L25.8,129.6,129.6,25.8Z" transform="translate(285.453 285.453)" fill="none" stroke="#707070" stroke-width="1" fill-rule="evenodd"/>
    <path id="Path_92" data-name="Path 92" d="M45.691.141C44.968.141,44.244.02,43.4.02A19.654,19.654,0,0,0,23.75,19.67a16.8,16.8,0,0,0,.482,4.219L48.464,138.658,210.972,79.827A276.649,276.649,0,0,0,45.691.141" transform="translate(262.789 0.442)" fill="none" stroke="#707070" stroke-width="1" fill-rule="evenodd"/>
    <path id="Path_93" data-name="Path 93" d="M173.169,174.322a14.589,14.589,0,0,0-.121-2.291A277.446,277.446,0,0,0,93.241,6.63L34.41,169.138,149.781,193.49a19.952,19.952,0,0,0,3.858.362,19.654,19.654,0,0,0,19.65-19.65" transform="translate(380.641 73.519)" fill="none" stroke="#707070" stroke-width="1" fill-rule="evenodd"/>
    <path id="Path_94" data-name="Path 94" d="M25.8,65.461,188.429,6.63,129.6,169.259,25.8,65.461Z" transform="translate(285.453 73.519)" fill="none" stroke="#707070" stroke-width="1" fill-rule="evenodd"/>
  </g>
</svg>
