<svg id="Group_8" data-name="Group 8" xmlns="http://www.w3.org/2000/svg" width="38.229" height="38.229" viewBox="0 0 38.229 38.229">
  <path id="Path_4" data-name="Path 4" d="M1179.829,920.415a19.119,19.119,0,0,1-19.115,19.115h0a19.119,19.119,0,0,1-19.115-19.115h0a19.119,19.119,0,0,1,19.115-19.115h0a19.119,19.119,0,0,1,19.115,19.115Z" transform="translate(-1141.6 -901.3)" fill="#121214"/>
  <g id="Group_7" data-name="Group 7" transform="translate(9.88 9.081)">
    <circle id="Ellipse_1" data-name="Ellipse 1" cx="2.463" cy="2.463" r="2.463" fill="#fff"/>
    <rect id="Rectangle_6" data-name="Rectangle 6" width="4.098" height="12.304" rx="1.9" transform="translate(0.414 6.561)" fill="#fff"/>
    <path id="Path_5" data-name="Path 5" d="M1320.794,1064.625v6.974a.817.817,0,0,1-.818.818h-2.463a.817.817,0,0,1-.817-.818v-5.743a2.049,2.049,0,1,0-4.1,0v5.743a.817.817,0,0,1-.818.818h-2.463a.817.817,0,0,1-.818-.818v-10.668a.817.817,0,0,1,.818-.818h2.463a.817.817,0,0,1,.818.818v.529a4.67,4.67,0,0,1,3.694-1.76c2.261,0,4.512,1.645,4.512,4.925Z" transform="translate(-1302.324 -1053.543)" fill="#fff"/>
  </g>
</svg>
