<svg id="Group_19" data-name="Group 19" xmlns="http://www.w3.org/2000/svg" width="38.229" height="38.229" viewBox="0 0 38.229 38.229">
  <path id="Path_28" data-name="Path 28" d="M699.829,355.315a19.119,19.119,0,0,1-19.115,19.115h0A19.119,19.119,0,0,1,661.6,355.315h0A19.119,19.119,0,0,1,680.715,336.2h0a19.119,19.119,0,0,1,19.115,19.115Z" transform="translate(-661.6 -336.2)" fill="#121214"/>
  <path id="Path_29" data-name="Path 29" d="M757.949,438.873l7.734-8.273h-2.934l-6.07,6.493-4.646-6.493H744l8.129,11.351-8.129,8.7h2.934l6.465-6.917,4.954,6.917h8.032l-8.437-11.784Zm-9.812-6.137h2.8l11.313,15.8h-2.8Z" transform="translate(-736.073 -421.519)" fill="#fff"/>
</svg>
