<svg id="Group_18" data-name="Group 18" xmlns="http://www.w3.org/2000/svg" width="38.229" height="38.229" viewBox="0 0 38.229 38.229">
  <path id="Path_26" data-name="Path 26" d="M1659.829,355.315a19.12,19.12,0,0,1-19.115,19.115h0a19.119,19.119,0,0,1-19.115-19.115h0a19.12,19.12,0,0,1,19.115-19.115h0a19.12,19.12,0,0,1,19.115,19.115Z" transform="translate(-1621.6 -336.2)" fill="#121214"/>
  <path id="Path_27" data-name="Path 27" d="M1723.513,450.7h-16.469a2.944,2.944,0,0,0-2.944,2.944v10.3a2.944,2.944,0,0,0,2.944,2.944h16.469a2.944,2.944,0,0,0,2.944-2.944v-10.3A2.944,2.944,0,0,0,1723.513,450.7Zm-5.589,8.812-4.579,2.29a.794.794,0,0,1-1.154-.712V456.51a.8.8,0,0,1,1.154-.712l4.579,2.29A.8.8,0,0,1,1717.924,459.512Z" transform="translate(-1696.164 -439.685)" fill="#fff"/>
</svg>
